<?xml version="1.0" encoding="utf-8"?>
<!-- Generator: Adobe Illustrator 24.0.3, SVG Export Plug-In . SVG Version: 6.00 Build 0)  -->
<!DOCTYPE svg PUBLIC "-//W3C//DTD SVG 1.1//EN" "http://www.w3.org/Graphics/SVG/1.1/DTD/svg11.dtd" [
	<!ENTITY ns_extend "http://ns.adobe.com/Extensibility/1.0/">
	<!ENTITY ns_ai "http://ns.adobe.com/AdobeIllustrator/10.0/">
	<!ENTITY ns_graphs "http://ns.adobe.com/Graphs/1.0/">
	<!ENTITY ns_vars "http://ns.adobe.com/Variables/1.0/">
	<!ENTITY ns_imrep "http://ns.adobe.com/ImageReplacement/1.0/">
	<!ENTITY ns_sfw "http://ns.adobe.com/SaveForWeb/1.0/">
	<!ENTITY ns_custom "http://ns.adobe.com/GenericCustomNamespace/1.0/">
	<!ENTITY ns_adobe_xpath "http://ns.adobe.com/XPath/1.0/">
]>
<svg version="1.1" id="Layer_1" xmlns:x="&ns_extend;" xmlns:i="&ns_ai;" xmlns:graph="&ns_graphs;"
	 xmlns="http://www.w3.org/2000/svg" xmlns:xlink="http://www.w3.org/1999/xlink" x="0px" y="0px" viewBox="0 0 36.1 34.2"
	 style="enable-background:new 0 0 36.1 34.2;" xml:space="preserve">
<style type="text/css">
	.st0{fill:url(#SVGID_1_);}
	.st1{fill:url(#SVGID_2_);}
	.st2{fill:url(#SVGID_3_);}
</style>
<metadata>
	<sfw  xmlns="&ns_sfw;">
		<slices></slices>
		<sliceSourceBounds  bottomLeftOrigin="true" height="34.2" width="36.1" x="14" y="14.9"></sliceSourceBounds>
	</sfw>
</metadata>
<linearGradient id="SVGID_1_" gradientUnits="userSpaceOnUse" x1="-289.7373" y1="-257.8941" x2="-265.8133" y2="-298.1321" gradientTransform="matrix(0 1 -1 0 -260.9001 296.0511)">
	<stop  offset="0" style="stop-color:#3C44DC"/>
	<stop  offset="1" style="stop-color:#0D1F6A"/>
</linearGradient>
<path class="st0" d="M0,7.1c0-1,1-1,1-1h17c0-1,0-5,0-5c0-0.4,0.1-0.8,0.5-1s0.9-0.1,1.2,0.2l16,16c0.4,0.4,0.4,1.1,0,1.6l-16,16
	c-0.3,0.3-0.8,0.4-1.2,0.2s-0.5-0.6-0.5-1v-5H1c0,0-1,0-1-1C0,21.1,0,13.1,0,7.1z"/>
<radialGradient id="SVGID_2_" cx="-141.9984" cy="793.7587" r="17.1" gradientTransform="matrix(1.117 -0.1316 0.1246 1.0576 67.1576 -845.1799)" gradientUnits="userSpaceOnUse">
	<stop  offset="0" style="stop-color:#D2D0F3"/>
	<stop  offset="1" style="stop-color:#1C3DB8"/>
</radialGradient>
<path class="st1" d="M1.2,26.9c0-5.9,0.1-13.6,0.1-19.6H18c0.6,0,1.2-0.5,1.2-1.2c0.1-1.1,0-4.1,0-4.6l15.6,15.6L19.3,32.6v-4.5
	c0-0.7-0.5-1.2-1.2-1.2L1.2,26.9L1.2,26.9z"/>
<linearGradient id="SVGID_3_" gradientUnits="userSpaceOnUse" x1="-312.0429" y1="-264.2788" x2="-311.9208" y2="-296.4018" gradientTransform="matrix(0 1 -1 0 -254.2887 328.4891)">
	<stop  offset="0" style="stop-color:#CED1F2"/>
	<stop  offset="1" style="stop-color:#1D42C9;stop-opacity:0"/>
</linearGradient>
<path class="st2" d="M8.1,8.3c4.1,0,9.2,0,9.8,0C21,8.1,19,4.1,21,5.1s12,12,12,12L22,28C19,20.1,14.8,12.7,8.1,8.3L8.1,8.3z"/>
</svg>
